<svg width="12" height="10" viewBox="0 0 12 10" fill="none" xmlns="http://www.w3.org/2000/svg">
<path d="M0.676844 4.39584C0.676844 4.39584 5.55957 2.33932 7.25298 1.61517C7.90215 1.32553 10.1036 0.398616 10.1036 0.398616C10.1036 0.398616 11.1197 -0.00687543 11.035 0.97793C11.0067 1.38346 10.781 2.80274 10.5552 4.33792C10.2165 6.51033 9.84958 8.88547 9.84958 8.88547C9.84958 8.88547 9.79313 9.5517 9.31334 9.66755C8.83354 9.78341 8.04324 9.26206 7.90215 9.14617C7.78922 9.0593 5.78535 7.75583 5.05153 7.11859C4.85396 6.94481 4.62818 6.59724 5.07974 6.19171C6.09581 5.23585 7.30943 4.04828 8.04324 3.29518C8.38195 2.94758 8.72061 2.13656 7.30942 3.12136C5.30555 4.54068 3.32988 5.87309 3.32988 5.87309C3.32988 5.87309 2.87829 6.16273 2.03159 5.90203C1.18484 5.64138 0.197008 5.29378 0.197008 5.29378C0.197008 5.29378 -0.480324 4.8593 0.676844 4.39584Z" fill="#1D3068"/>
</svg>
