<svg width="20" height="20" viewBox="0 0 20 20" fill="none" xmlns="http://www.w3.org/2000/svg">
<path d="M25.0027 0V20H-4.99902V0H25.0027Z" fill="#0437A0"/>
<path d="M9.99838 1.70044L10.2665 2.50129L11.1132 2.50834L10.4323 3.00931L10.6863 3.81369L9.99838 3.31977L9.31043 3.81369L9.56445 3.00931L8.88355 2.50834L9.73026 2.50129L9.99838 1.70044ZM6.39281 15.2231L6.66093 16.024L7.50765 16.031L6.82675 16.532L7.08076 17.3399L6.39281 16.846L5.70486 17.3399L5.9624 16.532L5.2815 16.031L6.12821 16.024L6.39634 15.2231H6.39281ZM3.73978 12.5736L4.00791 13.3745L4.85462 13.3815L4.17372 13.8825L4.42774 14.6904L3.73978 14.1965L3.05183 14.6904L3.30585 13.8825L2.62495 13.3815L3.47166 13.3745L3.73978 12.5736ZM2.75901 8.94687L3.02714 9.75124L3.87385 9.7583L3.19295 10.2593L3.45049 11.0636L2.76254 10.5697L2.07459 11.0636L2.3286 10.2593L1.64771 9.7583L2.49442 9.75124L2.76254 8.94687H2.75901ZM3.73978 5.32365L4.00791 6.1245L4.85462 6.13156L4.17372 6.63253L4.42774 7.44043L3.73978 6.95004L3.05183 7.44043L3.30585 6.63253L2.62495 6.13156L3.47166 6.1245L3.73978 5.32365ZM6.38928 2.67063L6.65741 3.47148L7.50412 3.47853L6.82322 3.9795L7.07723 4.7874L6.38928 4.29349L5.70133 4.7874L5.95534 3.9795L5.27445 3.47853L6.12116 3.47148L6.38928 2.67063ZM13.6251 2.67416L13.8933 3.475L14.74 3.48206L14.0591 3.98303L14.3131 4.79093L13.6251 4.29702L12.9372 4.79093L13.1912 3.98303L12.5103 3.48206L13.357 3.475L13.6251 2.67416ZM16.2676 5.3166L16.5357 6.11744L17.3824 6.1245L16.7015 6.62547L16.9555 7.43337L16.2676 6.93946L15.5796 7.43337L15.8372 6.62547L15.1563 6.1245L16.003 6.11744L16.2711 5.3166H16.2676ZM17.2378 8.93981L17.5059 9.74066L18.3526 9.74771L17.6717 10.2487L17.9292 11.0566L17.2413 10.5627L16.5533 11.0566L16.8073 10.2487L16.1264 9.74771L16.9732 9.74066L17.2413 8.93981H17.2378ZM16.2746 12.5524L16.5427 13.3533L17.3895 13.3603L16.7086 13.8613L16.9626 14.6657L16.2746 14.1718L15.5867 14.6657L15.8407 13.8613L15.1598 13.3603L16.0065 13.3533L16.2746 12.5524ZM13.6251 15.2055L13.8933 16.0063L14.74 16.0134L14.0591 16.5143L14.3131 17.3222L13.6251 16.8283L12.9372 17.3222L13.1912 16.5143L12.5103 16.0134L13.357 16.0063L13.6251 15.2055ZM9.99838 16.1827L10.2665 16.9836L11.1132 16.9906L10.4323 17.4916L10.6863 18.2995L9.99838 17.8056L9.31043 18.2995L9.56445 17.4916L8.88355 16.9906L9.73026 16.9836L9.99838 16.1827Z" fill="#FEDC36"/>
</svg>
