<svg width="71" height="21" viewBox="0 0 71 21" fill="none" xmlns="http://www.w3.org/2000/svg">
<path d="M68.3514 3.00742C69.6716 4.41028 70.3174 6.22457 70.446 8.88742H70.4431C70.4745 9.56456 70.4974 10.1503 70.5002 10.816C70.4974 11.4903 70.4745 12.076 70.4431 12.7531C70.3174 15.416 69.6716 17.2303 68.3485 18.6331L68.3142 18.6674C66.9112 19.9874 65.0966 20.6331 62.4334 20.7617C61.7561 20.7931 61.1675 20.816 60.5045 20.8188L10.5045 20.8188C9.83015 20.816 9.24435 20.7931 8.56711 20.7617C5.90102 20.6331 4.08933 19.9874 2.68341 18.6646L2.64912 18.6303C1.32893 17.2274 0.683124 15.4131 0.554534 12.7503H0.557393C0.52596 12.0731 0.503102 11.4874 0.500244 10.8217C0.503102 10.1474 0.52596 9.56171 0.557393 8.88456C0.683126 6.22171 1.32893 4.40742 2.65198 3.00456L2.68627 2.97028C4.08933 1.65028 5.90388 1.00456 8.56711 0.875987C9.24435 0.844559 9.83301 0.821705 10.496 0.818848L60.496 0.81885C61.1739 0.827391 61.7561 0.844564 62.4334 0.875993C65.0995 1.00456 66.9112 1.65028 68.3171 2.97314L68.3514 3.00742Z" fill="#ED1C24"/>
<path d="M13.1068 7.18604C14.1396 7.18604 14.8476 7.35572 15.231 7.69509C15.6268 8.02829 15.8247 8.6515 15.8247 9.56472C15.8247 10.262 15.7196 10.771 15.5093 11.0919C15.2929 11.4127 14.9249 11.6225 14.4055 11.7213L15.9824 14.2203C16.0195 14.2696 16.0257 14.3128 16.001 14.3498C15.9824 14.3869 15.9391 14.4054 15.8711 14.4054H14.7023C14.5477 14.4054 14.424 14.3375 14.3313 14.2018L12.81 11.8138H11.9566V14.2573C11.9566 14.319 11.9473 14.3591 11.9288 14.3776C11.9102 14.3961 11.8731 14.4054 11.8174 14.4054H10.6394C10.5837 14.4054 10.5466 14.3961 10.5281 14.3776C10.5095 14.3591 10.5002 14.319 10.5002 14.2573V7.41742C10.5002 7.36806 10.5095 7.33721 10.5281 7.32487C10.5466 7.30636 10.5837 7.29402 10.6394 7.28785C11.4248 7.21997 12.2472 7.18604 13.1068 7.18604ZM12.9584 8.45405H11.9566V10.6939H12.9584C13.5273 10.6939 13.9015 10.6291 14.0808 10.4995C14.2601 10.3576 14.3498 10.0583 14.3498 9.60174C14.3498 9.13896 14.2571 8.83353 14.0715 8.68544C13.8922 8.53118 13.5212 8.45405 12.9584 8.45405Z" fill="white"/>
<path d="M17.062 7.24157H21.7093C21.802 7.24157 21.8484 7.28785 21.8484 7.3804V8.37075C21.8484 8.4633 21.802 8.50958 21.7093 8.50958H18.3792V10.2589H21.4217C21.5207 10.2589 21.5701 10.3052 21.5701 10.3977V11.3418C21.5701 11.4343 21.5207 11.4806 21.4217 11.4806H18.3792V13.1374H21.7093C21.802 13.1374 21.8484 13.1836 21.8484 13.2762V14.2665C21.8484 14.3591 21.802 14.4054 21.7093 14.4054H17.062C16.9692 14.4054 16.9228 14.356 16.9228 14.2573V7.3804C16.9228 7.28785 16.9692 7.24157 17.062 7.24157Z" fill="white"/>
<path d="M25.767 7.18604C26.8492 7.18604 27.6191 7.46987 28.0767 8.03755C28.5405 8.60522 28.7724 9.53386 28.7724 10.8235C28.7724 12.1193 28.5405 13.0479 28.0767 13.6094C27.6253 14.1709 26.8554 14.4517 25.767 14.4517C24.7157 14.4517 23.819 14.4208 23.0769 14.3591C22.9842 14.3529 22.9378 14.3128 22.9378 14.2388V7.41742C22.9378 7.36806 22.9471 7.33721 22.9656 7.32487C22.9842 7.30636 23.0213 7.29402 23.0769 7.28785C23.8623 7.21997 24.759 7.18604 25.767 7.18604ZM25.6928 8.45405H24.3941V13.1836H25.767C26.3174 13.1836 26.7101 13.0016 26.945 12.6376C27.18 12.2735 27.2975 11.6688 27.2975 10.8235C27.2975 9.9843 27.1739 9.37961 26.9265 9.00938C26.6791 8.63916 26.2679 8.45405 25.6928 8.45405Z" fill="white"/>
<path d="M35.9996 7.23231H37.122C37.1962 7.23231 37.2364 7.28168 37.2426 7.3804L37.9104 14.2573C37.9166 14.356 37.8702 14.4054 37.7713 14.4054H36.5932C36.5067 14.4054 36.4603 14.356 36.4541 14.2573L36.046 9.81462L34.3763 14.0444C34.3392 14.137 34.2742 14.1832 34.1815 14.1832H33.3002C33.2198 14.1832 33.1549 14.137 33.1054 14.0444L31.445 9.81462L31.0369 14.2573C31.0307 14.356 30.9843 14.4054 30.8977 14.4054H29.7197C29.6207 14.4054 29.5744 14.356 29.5805 14.2573L30.2484 7.38966C30.2546 7.29093 30.2948 7.24157 30.369 7.24157H31.4914C31.6398 7.24157 31.748 7.26625 31.8161 7.31561C31.8903 7.36498 31.9583 7.46062 32.0201 7.60254L33.7455 12.11L35.4708 7.60254C35.5265 7.45445 35.5914 7.35572 35.6656 7.30636C35.7398 7.25699 35.8512 7.23231 35.9996 7.23231Z" fill="white"/>
<path d="M39.1017 7.24157H43.749C43.8418 7.24157 43.8881 7.28785 43.8881 7.3804V8.37075C43.8881 8.4633 43.8418 8.50958 43.749 8.50958H40.4189V10.2589H43.4614C43.5604 10.2589 43.6099 10.3052 43.6099 10.3977V11.3418C43.6099 11.4343 43.5604 11.4806 43.4614 11.4806H40.4189V13.1374H43.749C43.8418 13.1374 43.8881 13.1836 43.8881 13.2762V14.2665C43.8881 14.3591 43.8418 14.4054 43.749 14.4054H39.1017C39.0089 14.4054 38.9626 14.356 38.9626 14.2573V7.3804C38.9626 7.28785 39.0089 7.24157 39.1017 7.24157Z" fill="white"/>
<path d="M47.8067 7.18604C48.8889 7.18604 49.6588 7.46987 50.1164 8.03755C50.5802 8.60522 50.8121 9.53386 50.8121 10.8235C50.8121 12.1193 50.5802 13.0479 50.1164 13.6094C49.665 14.1709 48.8951 14.4517 47.8067 14.4517C46.7554 14.4517 45.8587 14.4208 45.1166 14.3591C45.0239 14.3529 44.9775 14.3128 44.9775 14.2388V7.41742C44.9775 7.36806 44.9868 7.33721 45.0053 7.32487C45.0239 7.30636 45.061 7.29402 45.1166 7.28785C45.902 7.21997 46.7987 7.18604 47.8067 7.18604ZM47.7325 8.45405H46.4338V13.1836H47.8067C48.3571 13.1836 48.7498 13.0016 48.9848 12.6376C49.2198 12.2735 49.3373 11.6688 49.3373 10.8235C49.3373 9.9843 49.2136 9.37961 48.9662 9.00938C48.7188 8.63916 48.3076 8.45405 47.7325 8.45405Z" fill="white"/>
<path d="M52.0284 7.24157H53.2065C53.2992 7.24157 53.3456 7.29093 53.3456 7.38966V14.2573C53.3456 14.356 53.2992 14.4054 53.2065 14.4054H52.0284C51.9356 14.4054 51.8893 14.356 51.8893 14.2573V7.38966C51.8893 7.29093 51.9356 7.24157 52.0284 7.24157Z" fill="white"/>
<path d="M57.2863 7.18604C57.8491 7.18604 58.2201 7.24774 58.3995 7.37115C58.5664 7.48838 58.721 7.7969 58.8633 8.2967L60.4959 14.2573C60.5144 14.356 60.4742 14.4054 60.3753 14.4054H59.1879C59.1508 14.4054 59.123 14.3961 59.1044 14.3776C59.0921 14.3591 59.0797 14.319 59.0673 14.2573L58.5386 12.3321H56.0526L55.5146 14.2573C55.5022 14.319 55.4868 14.3591 55.4682 14.3776C55.4559 14.3961 55.428 14.4054 55.3847 14.4054H54.2067C54.1077 14.4054 54.0675 14.356 54.0861 14.2573L55.7465 8.2967C55.8887 7.7969 56.0433 7.48838 56.2103 7.37115C56.3896 7.24774 56.7483 7.18604 57.2863 7.18604ZM57.2863 8.40777C57.2121 8.40777 57.1627 8.4232 57.1379 8.45405C57.1132 8.4849 57.0854 8.55894 57.0544 8.67618L56.3773 11.1289H58.2139L57.5461 8.67618C57.5028 8.52809 57.4595 8.44479 57.4162 8.42628C57.3915 8.41394 57.3482 8.40777 57.2863 8.40777Z" fill="white"/>
</svg>
