<svg width="41" height="40" viewBox="0 0 41 40" fill="none" xmlns="http://www.w3.org/2000/svg">
<path d="M20.5001 28.3332C25.1025 28.3332 28.8334 24.6022 28.8334 19.9998C28.8334 15.3975 25.1025 11.6665 20.5001 11.6665C15.8977 11.6665 12.1667 15.3975 12.1667 19.9998C12.1667 24.6022 15.8977 28.3332 20.5001 28.3332Z" fill="url(#paint0_linear_1523_88)"/>
<path d="M28.3317 4.33828L26.3734 9.06661C25.735 10.6066 23.425 9.64995 24.0634 8.10995L26.0217 3.38161C26.66 1.84161 28.97 2.79828 28.3317 4.33828ZM16.9217 31.8833L14.9634 36.6116C14.325 38.1516 12.015 37.1949 12.6534 35.6549L14.6117 30.9266C15.25 29.3866 17.56 30.3433 16.9217 31.8833V31.8833ZM37.1084 14.4683L32.38 16.4266C30.84 17.0649 29.8834 14.7549 31.4234 14.1166L36.1517 12.1583C37.6917 11.5199 38.6484 13.8299 37.1084 14.4683V14.4683ZM9.56336 25.8783L4.83503 27.8366C3.29503 28.4749 2.33836 26.1649 3.87836 25.5266L8.60669 23.5683C10.1467 22.9299 11.1034 25.2399 9.56336 25.8783V25.8783ZM36.1517 27.8383L31.4234 25.8799C29.8834 25.2416 30.84 22.9316 32.38 23.5699L37.1084 25.5283C38.6484 26.1666 37.6917 28.4766 36.1517 27.8383ZM8.60669 16.4283L3.87836 14.4699C2.33836 13.8316 3.29503 11.5216 4.83503 12.1599L9.56336 14.1183C11.1034 14.7566 10.1467 17.0666 8.60669 16.4283V16.4283ZM14.9617 3.37995L16.92 8.10828C17.5584 9.64828 15.2484 10.6049 14.61 9.06495L12.6517 4.33661C12.0134 2.79661 14.3234 1.83995 14.9617 3.37995V3.37995ZM26.3717 30.9249L28.33 35.6533C28.9684 37.1933 26.6584 38.1499 26.02 36.6099L24.0617 31.8816C23.4234 30.3416 25.7334 29.3849 26.3717 30.9249V30.9249Z" fill="#FFB300"/>
<defs>
<linearGradient id="paint0_linear_1523_88" x1="20.5001" y1="11.6665" x2="20.5001" y2="28.111" gradientUnits="userSpaceOnUse">
<stop stop-color="#FFC227"/>
<stop offset="1" stop-color="#FFB300"/>
</linearGradient>
</defs>
</svg>
