<svg width="40" height="40" viewBox="0 0 40 40" fill="none" xmlns="http://www.w3.org/2000/svg">
<path opacity="0.32" d="M31.6667 23.3333C34.4283 23.3333 36.6667 21.0949 36.6667 18.3333C36.6667 15.5716 34.4283 13.3333 31.6667 13.3333H31.615C31.6483 13.0599 31.6667 12.7816 31.6667 12.4999C31.6667 8.81825 28.6817 5.83325 25 5.83325C22.0833 5.83325 19.6033 7.70659 18.7 10.3149C18.0583 10.1099 17.3767 9.99992 16.6667 9.99992C12.985 9.99992 10 12.9849 10 16.6666C10 20.3483 12.985 23.3333 16.6667 23.3333C17.2417 23.3333 17.8 23.2599 18.3333 23.1233V23.3333H31.6667Z" fill="#73A5E6"/>
<path d="M10 31.6666C6.31837 31.6666 3.33337 28.6816 3.33337 24.9999C3.33337 21.3183 6.31837 18.3333 10 18.3333C10.695 18.3333 11.3634 18.4399 11.9934 18.6366C12.9317 15.5666 15.7884 13.3333 19.1667 13.3333C23.3084 13.3333 26.6667 16.6916 26.6667 20.8333C26.6667 21.2249 26.6367 21.6083 26.5784 21.9833C27.125 21.7783 27.715 21.6666 28.3334 21.6666C31.095 21.6666 33.3334 23.9049 33.3334 26.6666C33.3334 29.4283 31.095 31.6666 28.3334 31.6666H10Z" fill="url(#paint0_linear_1523_747)"/>
<path d="M11.6667 20.8333C11.6667 24.9749 15.025 28.3333 19.1667 28.3333C22.9184 28.3333 26.025 25.5799 26.5784 21.9833C27.125 21.7783 27.715 21.6666 28.3334 21.6666C31.095 21.6666 33.3334 23.9049 33.3334 26.6666C33.3334 29.4283 31.095 31.6666 28.3334 31.6666H10C6.31837 31.6666 3.33337 28.6816 3.33337 24.9999C3.33337 21.3183 6.31837 18.3333 10 18.3333C10.695 18.3333 11.3634 18.4399 11.9934 18.6366C11.78 19.3316 11.6667 20.0683 11.6667 20.8333Z" fill="url(#paint1_radial_1523_747)"/>
<defs>
<linearGradient id="paint0_linear_1523_747" x1="18.3334" y1="13.3333" x2="18.3334" y2="31.6666" gradientUnits="userSpaceOnUse">
<stop stop-color="#9FC7FF"/>
<stop offset="1" stop-color="#9BC1F5"/>
</linearGradient>
<radialGradient id="paint1_radial_1523_747" cx="0" cy="0" r="1" gradientUnits="userSpaceOnUse" gradientTransform="translate(14.9533 -18.9139) rotate(-90) scale(17.4645 5.58088)">
<stop stop-color="#486DA8" stop-opacity="0.4"/>
<stop offset="1" stop-color="#486DA8" stop-opacity="0"/>
</radialGradient>
</defs>
</svg>
