<svg width="18" height="18" viewBox="0 0 18 18" fill="none" xmlns="http://www.w3.org/2000/svg">
<path d="M13.5055 15.7416C14.7466 15.7416 15.7527 14.7355 15.7527 13.4944C15.7527 12.2533 14.7466 11.2472 13.5055 11.2472C12.2644 11.2472 11.2583 12.2533 11.2583 13.4944C11.2583 14.7355 12.2644 15.7416 13.5055 15.7416Z" stroke="#A9AABC" stroke-width="1.5" stroke-linecap="round" stroke-linejoin="round"/>
<path d="M6.76367 10.1235L11.2581 12.3707" stroke="#A9AABC" stroke-width="1.5" stroke-linecap="round" stroke-linejoin="round"/>
<path d="M4.51672 11.2472C5.75781 11.2472 6.76392 10.2411 6.76392 9C6.76392 7.75891 5.75781 6.75281 4.51672 6.75281C3.27563 6.75281 2.26953 7.75891 2.26953 9C2.26953 10.2411 3.27563 11.2472 4.51672 11.2472Z" stroke="#A9AABC" stroke-width="1.5" stroke-linecap="round" stroke-linejoin="round"/>
<path d="M11.2581 5.62915L6.76367 7.87634" stroke="#A9AABC" stroke-width="1.5" stroke-linecap="round" stroke-linejoin="round"/>
<path d="M13.5055 6.75281C14.7466 6.75281 15.7527 5.74671 15.7527 4.50562C15.7527 3.26453 14.7466 2.25842 13.5055 2.25842C12.2644 2.25842 11.2583 3.26453 11.2583 4.50562C11.2583 5.74671 12.2644 6.75281 13.5055 6.75281Z" stroke="#A9AABC" stroke-width="1.5" stroke-linecap="round" stroke-linejoin="round"/>
</svg>
