<svg width="13" height="12" viewBox="0 0 13 12" fill="none" xmlns="http://www.w3.org/2000/svg">
<path d="M12.1961 2.16047C11.7998 2.33117 11.3832 2.45003 10.9565 2.51412C11.156 2.4799 11.4495 2.12055 11.5663 1.97509C11.7438 1.75569 11.8791 1.50523 11.9653 1.23642C11.9653 1.21646 11.9852 1.18794 11.9653 1.17368C11.9552 1.16819 11.9439 1.16531 11.9325 1.16531C11.921 1.16531 11.9098 1.16819 11.8997 1.17368C11.4365 1.42478 10.9434 1.61642 10.4322 1.74408C10.4144 1.74953 10.3955 1.75002 10.3774 1.74549C10.3593 1.74097 10.3428 1.73161 10.3297 1.71841C10.2899 1.67099 10.247 1.62622 10.2014 1.58437C9.99295 1.39741 9.75641 1.24438 9.50047 1.1309C9.15498 0.989035 8.78181 0.927596 8.40912 0.951224C8.0475 0.974082 7.69445 1.07116 7.37192 1.23642C7.0543 1.41066 6.77516 1.64736 6.55127 1.93231C6.31575 2.2256 6.14572 2.56596 6.05261 2.93051C5.97583 3.27728 5.96712 3.63567 6.02697 3.98576C6.02697 4.04565 6.02697 4.0542 5.97568 4.04565C3.944 3.74619 2.27706 3.02463 0.915015 1.47599C0.855176 1.40754 0.823832 1.40754 0.775391 1.47599C0.182701 2.37723 0.470497 3.80323 1.21136 4.50767C1.31109 4.60179 1.41367 4.69305 1.52195 4.77861C1.18227 4.75448 0.850886 4.66234 0.547433 4.50767C0.490443 4.4706 0.459099 4.49056 0.45625 4.55901C0.448172 4.6539 0.448172 4.74931 0.45625 4.84421C0.515706 5.29899 0.694773 5.7298 0.975139 6.0926C1.2555 6.45539 1.62711 6.73715 2.05195 6.90906C2.15552 6.95346 2.26344 6.98691 2.37394 7.00888C2.05948 7.07085 1.73696 7.08048 1.41937 7.0374C1.35098 7.02314 1.32534 7.06022 1.35098 7.12581C1.76986 8.26661 2.67884 8.61456 3.34561 8.80849C3.4368 8.82275 3.52798 8.82275 3.63056 8.84557C3.63056 8.84557 3.63056 8.84557 3.61346 8.86268C3.41685 9.22204 2.62185 9.46446 2.25712 9.58994C1.59139 9.82928 0.881594 9.92076 0.177002 9.85803C0.0658723 9.84092 0.0402271 9.84377 0.0117324 9.85803C-0.0167623 9.87229 0.0117324 9.90366 0.0430766 9.93218C0.18555 10.0263 0.328024 10.109 0.476196 10.1889C0.917307 10.4297 1.38365 10.621 1.86674 10.7593C4.36857 11.4495 7.18385 10.9418 9.06165 9.07373C10.5377 7.6078 11.0563 5.58573 11.0563 3.56081C11.0563 3.4838 11.1503 3.43817 11.2045 3.39824C11.5779 3.10702 11.9071 2.7631 12.1818 2.37723C12.2294 2.31971 12.2538 2.24647 12.2502 2.17188C12.2502 2.1291 12.2502 2.13766 12.1961 2.16047Z" fill="#1D3068"/>
</svg>
